<svg xmlns="http://www.w3.org/2000/svg" width="56" height="56" viewBox="0 0 64 64" fill="none">
  <rect x="12" y="12" width="40" height="40" rx="10" fill="#0B0F0A"/>
  <path d="M20 15C22.31 16.12 24.05 18.04 24.88 20.78C25.46 22.69 25.59 24.84 25.62 27.3C25.67 31.57 25.18 36.22 24.92 40.85C24.83 42.39 24.77 43.89 24.82 45.31C24.89 47.16 25.14 48.89 25.87 50.44L20.85 53C18.84 49.62 18.3 45.62 18.3 41.27C18.3 36.75 18.92 31.95 18.99 27.31C19.03 24.88 18.95 22.73 18.46 20.86C18.02 19.2 17.24 17.73 16 16.45L20 15Z" fill="#7FFF00"/>
  <path d="M31.68 12C34.02 13.21 35.82 15.3 36.73 18.28C37.38 20.38 37.54 22.75 37.57 25.45C37.62 30.15 37.07 35.27 36.78 40.37C36.68 42.07 36.61 43.74 36.67 45.32C36.75 47.41 37.04 49.38 37.89 51.13L32.32 54C30.09 50.18 29.49 45.67 29.49 40.74C29.49 35.62 30.17 30.2 30.25 24.95C30.3 22.28 30.21 19.91 29.66 17.85C29.18 16 28.33 14.37 27 13L31.68 12Z" fill="#7FFF00"/>
  <path d="M43.44 15C45.77 16.12 47.51 18.04 48.34 20.78C48.92 22.69 49.05 24.84 49.08 27.3C49.13 31.57 48.64 36.22 48.38 40.85C48.29 42.39 48.23 43.89 48.28 45.31C48.35 47.16 48.6 48.89 49.33 50.44L44.31 53C42.3 49.62 41.76 45.62 41.76 41.27C41.76 36.75 42.38 31.95 42.45 27.31C42.49 24.88 42.41 22.73 41.92 20.86C41.48 19.2 40.7 17.73 39.46 16.45L43.44 15Z" fill="#7FFF00"/>
</svg>
