<svg width="40" height="34" viewBox="0 0 40 34" fill="none" xmlns="http://www.w3.org/2000/svg">
<path fill-rule="evenodd" clip-rule="evenodd" d="M19.2437 0V11.7571C19.2437 15.8418 18.517 19.5636 17.0308 22.895C15.6093 26.2298 13.1962 29.5917 9.86893 32.9869L8.904 33.9715L0.641554 27.3896L1.82724 26.1802C4.31405 23.6436 5.96599 21.2643 6.88027 19.0451H0V0H19.2437ZM8.97632 17.5172C8.85794 18.023 8.70545 18.5323 8.51886 19.0451C7.68447 21.3381 6.16806 23.701 3.96962 26.1339C3.63497 26.5043 3.28452 26.8762 2.91826 27.2498L8.77769 31.9175C12.0219 28.6071 14.3061 25.396 15.6303 22.2842C17.0206 19.1724 17.7158 15.6634 17.7158 11.7571V1.52788H1.52788V17.5172H8.97632ZM40 0V11.7571C40 15.8418 39.2732 19.5637 37.7871 22.8951C36.3655 26.2299 33.9525 29.5918 30.6252 32.9869L29.6603 33.9715L21.3979 27.3896L22.5835 26.1802C25.0703 23.6436 26.7223 21.2643 27.6366 19.0451H20.7563V0H40ZM29.7326 17.5172C29.6142 18.023 29.4618 18.5323 29.2752 19.0451C28.4408 21.3381 26.9244 23.701 24.7259 26.1339C24.3913 26.5043 24.0408 26.8762 23.6746 27.2498L29.534 31.9175C32.7782 28.6071 35.0624 25.396 36.3866 22.2842C37.7769 19.1724 38.4721 15.6634 38.4721 11.7571V1.52788H22.2842V17.5172H29.7326Z" fill="white"/>
</svg>
